<?xml version="1.0" encoding="UTF-8"?>
<svg width="600" height="400" viewBox="0 0 600 400" fill="none" xmlns="http://www.w3.org/2000/svg">
  <!-- Background shapes -->
  <rect x="50" y="50" width="500" height="300" rx="20" fill="#F0F0F0"/>
  
  <!-- Characters -->
  <g transform="translate(100, 100)">
    <!-- First character -->
    <path d="M50,200 Q65,180 80,200" stroke="#333" fill="none" stroke-width="3"/>
    <circle cx="65" cy="150" r="30" fill="#333"/>
    <rect x="40" y="180" width="50" height="70" rx="10" fill="#333"/>
    
    <!-- Second character -->
    <path d="M200,200 Q215,180 230,200" stroke="#333" fill="none" stroke-width="3"/>
    <circle cx="215" cy="150" r="30" fill="#333"/>
    <rect x="190" y="180" width="50" height="70" rx="10" fill="#333"/>
    
    <!-- Third character -->
    <path d="M350,200 Q365,180 380,200" stroke="#333" fill="none" stroke-width="3"/>
    <circle cx="365" cy="150" r="30" fill="#333"/>
    <rect x="340" y="180" width="50" height="70" rx="10" fill="#333"/>
  </g>
  
  <!-- Floating elements -->
  <rect x="150" y="80" width="60" height="40" rx="5" fill="#1976d2" opacity="0.8"/>
  <rect x="250" y="120" width="80" height="50" rx="5" fill="#dc004e" opacity="0.8"/>
  <rect x="400" y="90" width="70" height="45" rx="5" fill="#4caf50" opacity="0.8"/>
</svg> 